# xmcd
# Copyright (C) 1995-1998 Ti Kan
#
# Track frame offsets:
#       150
#       30796
#       59752
#       82948
#
# Disc length: 1426 seconds
#
# Revision: 0
# Processed by: cddbd v1.5.2PL0 Copyright (c) Steve Scherf et al.
# Submitted via: CD-Import v1.0
#
DISCID=24059004
DTITLE=Dj Machuca - Démo 07
DYEAR=07
DGENRE=
TTITLE0=Asesinato
TTITLE1=Thema
TTITLE2=Vacilando
TTITLE3=Piano Guasòn
EXTD=
EXTT0=
EXTT1=
EXTT2=
EXTT3=
PLAYORDER=
